<svg xmlns="http://www.w3.org/2000/svg" xmlns:xlink="http://www.w3.org/1999/xlink" width="120" height="120"><g fill="none" fill-rule="evenodd"><path fill="#0F88EB" d="M12 0h96c6.627 0 12 5.373 12 12v96c0 6.627-5.373 12-12 12H12c-6.627 0-12-5.373-12-12V12C0 5.373 5.373 0 12 0z"/><path fill="#FFF" d="M61.875 62.04s-.023-6.145-1.967-6.145H46.353C46.805 48.845 47 42.47 47 37h13.176c0-.222.51-6.093-2.222-6.026H35.028c.902-3.414 2.039-6.939 3.398-10.583 0 0-6.235 0-8.36 5.617-.878 2.319-3.422 11.227-7.952 20.329 1.526-.164 6.571-.304 9.544-5.778.547-1.529.662-1.733 1.342-3.559h8c0 2.508-.845 17.183-.97 18.895H26.484c-3.04 0-4.03 6.145-4.03 6.145h16.991C38.31 75.013 32.192 85.942 21.094 94.59c5.308 1.52 10.598-.244 13.213-2.579 0 0 5.953-5.434 9.217-18.021l13.98 16.9s2.672-6.389-.32-10.406c-1.964-2.323-7.27-8.603-9.531-10.881l-3.79 3.021c1.132-3.637 1.812-7.17 2.04-10.583h15.972zM66 30v56h5.5l2 7.5 11-7.5H97V30H66zm25 50h-7l-7.5 5-1.5-5h-3V36h19v44z"/></g></svg>